<?xml version="1.0" encoding="utf-8"?>
<!-- Svg Vector Icons : http://www.onlinewebfonts.com/icon -->
<!DOCTYPE svg PUBLIC "-//W3C//DTD SVG 1.1//EN" "http://www.w3.org/Graphics/SVG/1.1/DTD/svg11.dtd">
<svg version="1.1" xmlns="http://www.w3.org/2000/svg" xmlns:xlink="http://www.w3.org/1999/xlink" x="0px" y="0px" viewBox="0 0 1000 1000" enable-background="new 0 0 1000 1000" xml:space="preserve">
<metadata> Svg Vector Icons : http://www.onlinewebfonts.com/icon </metadata>
<g><g><g id="_x36__23_"><g><path d="M82.6,301.2h72.6l119.4,149.3L369.5,333L227.8,156H82.6C42.5,156,10,188.5,10,228.6S42.5,301.2,82.6,301.2z M772.4,301.2v61.3c10.8,10.7,44.7,15.2,55.5,4.5l154-116.4c10.8-10.7,10.8-28.1,0-38.8l-154-116.4c-10.8-10.7-44.7-16.9-55.5-6.2V156H590.9L155.2,700.6H82.6c-40.1,0-72.6,32.5-72.6,72.6s32.5,72.6,72.6,72.6h145.2l435.7-544.6L772.4,301.2L772.4,301.2L772.4,301.2z M827.9,634c-10.8-10.7-44.7-7.9-55.5,2.8v63.8H663.5L544,551.3l-94.8,117.5l141.6,177h181.5v64.7c10.8,10.7,44.7,6,55.5-4.8l154-116.4c10.8-10.7,10.8-28.1,0-38.8L827.9,634z"/></g></g></g><g></g><g></g><g></g><g></g><g></g><g></g><g></g><g></g><g></g><g></g><g></g><g></g><g></g><g></g><g></g></g>
</svg>